<svg width="640" height="640" viewBox="0 0 640 640" fill="none" xmlns="http://www.w3.org/2000/svg">
  <defs>
    <linearGradient id="bg" x1="116" y1="92" x2="520" y2="560" gradientUnits="userSpaceOnUse">
      <stop stop-color="#F6E7D6"/>
      <stop offset="0.52" stop-color="#92B2B8"/>
      <stop offset="1" stop-color="#30424A"/>
    </linearGradient>
    <radialGradient id="glow" cx="0" cy="0" r="1" gradientUnits="userSpaceOnUse" gradientTransform="translate(334 266) rotate(90) scale(298)">
      <stop stop-color="#FFF8F1" stop-opacity="0.96"/>
      <stop offset="1" stop-color="#FFF8F1" stop-opacity="0"/>
    </radialGradient>
    <linearGradient id="hair" x1="224" y1="118" x2="420" y2="370" gradientUnits="userSpaceOnUse">
      <stop stop-color="#F7D98D"/>
      <stop offset="1" stop-color="#B77A2B"/>
    </linearGradient>
    <linearGradient id="skin" x1="238" y1="210" x2="390" y2="444" gradientUnits="userSpaceOnUse">
      <stop stop-color="#F4C4A4"/>
      <stop offset="1" stop-color="#D69572"/>
    </linearGradient>
    <linearGradient id="jacket" x1="176" y1="378" x2="454" y2="562" gradientUnits="userSpaceOnUse">
      <stop stop-color="#244954"/>
      <stop offset="1" stop-color="#0F232D"/>
    </linearGradient>
    <linearGradient id="tablet" x1="380" y1="372" x2="548" y2="534" gradientUnits="userSpaceOnUse">
      <stop stop-color="#86F6FF"/>
      <stop offset="1" stop-color="#2A8EFF"/>
    </linearGradient>
    <filter id="soft" x="54" y="70" width="536" height="536" filterUnits="userSpaceOnUse" color-interpolation-filters="sRGB">
      <feGaussianBlur stdDeviation="22"/>
    </filter>
  </defs>

  <circle cx="320" cy="320" r="320" fill="#F3F1ED"/>
  <circle cx="320" cy="320" r="282" fill="url(#bg)"/>
  <circle cx="320" cy="320" r="282" fill="url(#glow)"/>

  <g filter="url(#soft)" opacity="0.42">
    <circle cx="462" cy="226" r="58" fill="#FFD3A6"/>
    <circle cx="494" cy="340" r="46" fill="#91F1FF"/>
    <circle cx="138" cy="352" r="36" fill="#F5C28B"/>
  </g>

  <path d="M180 468C196 398 242 360 318 360C392 360 438 398 454 468V530H180V468Z" fill="url(#jacket)"/>
  <path d="M250 372H390V520H250V372Z" fill="#F7F7FA"/>
  <path d="M286 372C286 350 302 332 322 332C342 332 358 350 358 372V520H286V372Z" fill="#FBFAFD"/>

  <path d="M206 246C206 168 258 124 324 124C394 124 432 176 430 250C422 228 408 198 380 180C352 162 302 154 248 178L206 246Z" fill="url(#hair)"/>
  <path d="M270 156C226 168 200 196 192 236L220 260L262 228L270 156Z" fill="url(#hair)"/>
  <path d="M390 154C432 168 460 200 470 238L434 260L392 224L390 154Z" fill="url(#hair)"/>

  <ellipse cx="322" cy="256" rx="116" ry="124" fill="url(#skin)"/>
  <path d="M218 260C234 196 282 168 324 168C370 168 410 204 424 260C394 232 364 220 320 220C280 220 248 232 218 260Z" fill="#DFAF8D"/>

  <path d="M190 246L126 272L184 294L190 246Z" fill="#F2A37E"/>
  <path d="M454 246L518 272L460 294L454 246Z" fill="#F2A37E"/>

  <rect x="208" y="158" width="52" height="124" rx="26" fill="#384E57"/>
  <rect x="382" y="158" width="52" height="124" rx="26" fill="#384E57"/>
  <path d="M232 282C232 226 278 194 320 194C364 194 408 226 408 282" stroke="#475E67" stroke-width="20" stroke-linecap="round"/>
  <circle cx="408" cy="284" r="18" fill="#58E7FF"/>
  <path d="M424 296C440 308 446 326 446 344V370" stroke="#384E57" stroke-width="9" stroke-linecap="round"/>

  <circle cx="278" cy="262" r="8" fill="#4A2C2A"/>
  <circle cx="362" cy="262" r="8" fill="#4A2C2A"/>
  <path d="M286 316C302 328 338 328 352 316" stroke="#FDF0EA" stroke-width="10" stroke-linecap="round"/>
  <path d="M264 292C276 286 288 284 300 286" stroke="#7C5243" stroke-width="7" stroke-linecap="round"/>
  <path d="M340 286C352 284 364 286 376 292" stroke="#7C5243" stroke-width="7" stroke-linecap="round"/>

  <path d="M244 228C256 268 258 346 252 428" stroke="url(#hair)" stroke-width="24" stroke-linecap="round"/>
  <path d="M250 396L220 440L260 474L230 520" stroke="#B77A2B" stroke-width="22" stroke-linecap="round"/>

  <g transform="rotate(8 464 456)">
    <rect x="392" y="388" width="164" height="120" rx="24" fill="url(#tablet)"/>
    <rect x="408" y="406" width="52" height="10" rx="5" fill="#DDFDFF"/>
    <rect x="472" y="406" width="66" height="10" rx="5" fill="#DDFDFF" fill-opacity="0.8"/>
    <rect x="408" y="430" width="30" height="44" rx="10" fill="#E7FFFF" fill-opacity="0.7"/>
    <rect x="448" y="430" width="30" height="44" rx="10" fill="#E7FFFF" fill-opacity="0.45"/>
    <rect x="488" y="430" width="50" height="16" rx="8" fill="#E7FFFF" fill-opacity="0.75"/>
    <rect x="488" y="458" width="38" height="16" rx="8" fill="#E7FFFF" fill-opacity="0.55"/>
  </g>

  <path d="M352 442L404 482" stroke="#22181B" stroke-width="12" stroke-linecap="round"/>
  <path d="M406 484L418 510" stroke="#22181B" stroke-width="12" stroke-linecap="round"/>
</svg>
